<?xml version="1.0" standalone="no"?>
<!DOCTYPE svg PUBLIC "-//W3C//DTD SVG 20010904//EN"
 "http://www.w3.org/TR/2001/REC-SVG-20010904/DTD/svg10.dtd">
<svg version="1.0" xmlns="http://www.w3.org/2000/svg"
 width="300.000000pt" height="300.000000pt" viewBox="0 0 300.000000 300.000000"
 preserveAspectRatio="xMidYMid meet">
<metadata>
Created by potrace 1.11, written by Peter Selinger 2001-2013
</metadata>
<g transform="translate(0.000000,300.000000) scale(0.100000,-0.100000)"
fill="#000000" stroke="none">
<path d="M0 1500 l0 -1500 1500 0 1500 0 0 1500 0 1500 -1500 0 -1500 0 0
-1500z m2787 1308 c-3 -8 -6 -5 -6 6 -1 11 2 17 5 13 3 -3 4 -12 1 -19z m14
-70 c22 -25 25 -35 6 -19 -8 6 -17 8 -21 4 -9 -9 -27 18 -20 29 8 12 15 10 35
-14z m-14 -70 c-3 -8 -6 -5 -6 6 -1 11 2 17 5 13 3 -3 4 -12 1 -19z m138 -26
c-3 -3 -11 0 -18 7 -9 10 -8 11 6 5 10 -3 15 -9 12 -12z m-170 -82 c3 -6 -1
-7 -9 -4 -18 7 -21 14 -7 14 6 0 13 -4 16 -10z m-170 -90 c3 -6 -1 -7 -9 -4
-18 7 -21 14 -7 14 6 0 13 -4 16 -10z m130 -86 c9 -15 12 -23 6 -20 -11 7 -35
46 -28 46 3 0 12 -12 22 -26z m-24 -11 c13 -16 12 -17 -3 -4 -17 13 -22 21
-14 21 2 0 10 -8 17 -17z m-281 -25 c0 -6 -6 -5 -15 2 -8 7 -15 14 -15 16 0 2
7 1 15 -2 8 -4 15 -11 15 -16z m315 -18 c10 -11 16 -20 13 -20 -3 0 -13 9 -23
20 -10 11 -16 20 -13 20 3 0 13 -9 23 -20z m-190 -8 c-3 -3 -11 0 -18 7 -9 10
-8 11 6 5 10 -3 15 -9 12 -12z m-79 -13 c19 -22 19 -22 -3 -8 -13 8 -23 17
-23 21 0 12 6 9 26 -13z m169 -9 c10 -11 16 -20 13 -20 -3 0 -13 9 -23 20 -10
11 -16 20 -13 20 3 0 13 -9 23 -20z m-1018 -26 c-3 -3 -12 -4 -19 -1 -8 3 -5
6 6 6 11 1 17 -2 13 -5z m778 -44 c3 -6 -1 -7 -9 -4 -18 7 -21 14 -7 14 6 0
13 -4 16 -10z m-98 -62 c-3 -8 -6 -5 -6 6 -1 11 2 17 5 13 3 -3 4 -12 1 -19z
m-439 -14 c51 -9 95 -14 98 -11 4 3 17 1 31 -4 14 -5 53 -13 87 -18 52 -8 81
-22 199 -95 174 -108 179 -111 307 -156 102 -36 106 -39 127 -81 12 -24 22
-48 22 -54 0 -5 -23 -35 -52 -66 -29 -30 -177 -189 -330 -352 l-278 -297 -276
-211 c-152 -116 -281 -213 -288 -215 -6 -3 -65 37 -131 89 -65 51 -184 144
-264 206 -179 140 -182 142 -310 281 -139 151 -168 180 -181 180 -5 0 -8 4 -5
8 6 9 -179 212 -188 206 -3 -2 -4 -1 -1 2 2 4 -28 42 -67 85 l-71 79 20 47 19
47 120 46 c85 33 162 72 266 138 l148 93 127 26 c112 23 161 27 388 32 143 3
289 7 325 8 36 2 107 -5 158 -13z m437 -34 c3 -6 -1 -7 -9 -4 -18 7 -21 14 -7
14 6 0 13 -4 16 -10z m22 -26 c-3 -3 -12 -4 -19 -1 -8 3 -5 6 6 6 11 1 17 -2
13 -5z m-1997 -1364 c0 -4 -7 -7 -15 -6 -23 3 -26 12 -5 13 11 1 20 -2 20 -7z"/>
</g>
</svg>
