<?xml version="1.0" standalone="no"?>
<!DOCTYPE svg PUBLIC "-//W3C//DTD SVG 20010904//EN"
 "http://www.w3.org/TR/2001/REC-SVG-20010904/DTD/svg10.dtd">
<svg version="1.0" xmlns="http://www.w3.org/2000/svg"
 width="470.000000pt" height="470.000000pt" viewBox="0 0 470.000000 470.000000"
 preserveAspectRatio="xMidYMid meet">
<metadata>
Created by potrace 1.11, written by Peter Selinger 2001-2013
</metadata>
<g transform="translate(0.000000,470.000000) scale(0.100000,-0.100000)"
fill="#000000" stroke="none">
<path d="M2763 3882 c-7 -4 -46 -7 -88 -7 -41 0 -75 -3 -75 -7 0 -4 -11 -3
-25 2 -14 5 -27 5 -30 0 -3 -5 -18 -5 -33 -1 -15 5 -36 5 -47 2 -11 -3 -190
-6 -397 -6 -208 0 -378 -3 -378 -7 0 -3 -8 -5 -17 -4 -10 2 -31 -1 -48 -5 -16
-5 -52 -11 -78 -13 -26 -3 -53 -8 -59 -12 -11 -7 -51 -13 -105 -17 -13 0 -23
-5 -23 -10 0 -4 -4 -6 -9 -3 -5 3 -35 1 -67 -6 -33 -6 -68 -12 -79 -14 -11 -1
-20 -3 -20 -4 0 -1 -13 -4 -30 -6 -41 -6 -85 -24 -85 -35 0 -5 -3 -8 -7 -7 -5
2 -41 -19 -81 -45 -40 -26 -77 -47 -82 -47 -5 0 -13 -7 -18 -16 -5 -9 -13 -16
-18 -16 -12 -1 -47 -22 -234 -143 -74 -48 -218 -115 -252 -118 -10 -1 -18 -5
-18 -10 0 -5 -7 -7 -15 -3 -8 3 -15 2 -15 -2 0 -8 -160 -68 -172 -64 -5 1 -8
-2 -8 -7 0 -5 -12 -11 -27 -14 -41 -9 -47 -16 -82 -90 -46 -101 -47 -109 -14
-145 140 -154 182 -200 208 -227 26 -28 116 -127 240 -263 22 -25 60 -66 85
-92 25 -26 83 -90 130 -141 47 -51 96 -105 110 -120 14 -15 59 -64 100 -109
41 -46 96 -105 123 -132 26 -28 47 -51 47 -53 0 -2 17 -21 37 -42 21 -22 59
-61 85 -89 50 -52 153 -136 163 -134 4 1 14 -7 23 -17 9 -10 53 -46 97 -81 44
-34 91 -71 105 -82 14 -11 41 -32 60 -47 19 -16 36 -31 38 -35 2 -5 8 -8 13
-8 9 0 44 -27 81 -62 10 -10 21 -18 24 -18 3 0 11 -6 18 -13 14 -13 53 -44
121 -96 22 -17 50 -39 62 -51 12 -11 25 -20 28 -20 4 0 14 -7 65 -51 10 -8 31
-24 46 -35 14 -10 38 -29 51 -41 14 -12 34 -25 44 -28 11 -4 17 -11 14 -16 -4
-5 -2 -9 3 -9 5 0 26 -13 47 -30 l37 -29 41 32 c23 18 50 40 61 49 10 10 54
43 98 75 43 31 78 61 78 65 0 4 6 8 13 8 6 0 26 14 44 30 18 17 37 30 42 30 6
0 11 4 11 8 0 4 12 15 28 24 15 9 45 33 67 52 22 20 43 36 48 36 4 0 16 8 26
18 24 21 32 28 96 75 28 20 56 42 64 49 15 12 129 99 175 133 15 11 36 27 46
35 10 8 51 40 90 70 40 30 89 73 109 94 20 22 62 66 94 99 31 32 57 60 57 62
0 1 26 29 58 62 31 34 104 111 162 174 58 62 116 124 130 139 14 15 75 80 135
145 61 65 138 147 172 183 35 36 63 67 63 69 0 1 21 25 48 52 26 26 90 95 143
152 54 57 113 121 133 142 20 21 36 41 36 43 0 10 -73 179 -83 191 -5 7 -12
12 -15 11 -4 -1 -14 1 -22 4 -8 4 -24 9 -35 14 -11 4 -22 8 -25 9 -3 1 -18 7
-33 13 -16 7 -34 12 -42 12 -8 0 -16 4 -19 9 -3 5 -18 12 -33 16 -52 13 -247
89 -290 113 -24 13 -43 28 -43 33 0 5 -5 9 -10 9 -6 0 -35 16 -65 35 -30 19
-55 31 -55 27 0 -4 -5 0 -10 8 -5 8 -13 15 -17 15 -9 1 -95 54 -103 64 -3 4
-16 12 -30 19 -27 13 -62 34 -70 42 -3 3 -16 11 -30 19 -14 8 -45 27 -70 43
-25 16 -59 30 -75 33 -17 2 -41 7 -55 9 -28 6 -89 14 -160 21 -25 3 -52 8 -60
11 -16 6 -92 16 -122 16 -10 -1 -18 2 -18 6 0 4 -12 7 -27 7 -29 1 -102 10
-163 20 -19 4 -41 7 -47 7 -7 1 -13 6 -13 11 0 6 -9 2 -20 -8 -20 -18 -21 -18
-13 1 7 18 6 18 -19 2 -19 -13 -29 -15 -34 -6 -5 7 -3 8 6 3 9 -5 11 -4 6 3
-8 14 -8 14 -23 4z"/>
</g>
</svg>
