<?xml version="1.0" encoding="iso-8859-1"?>
<!-- Generator: Adobe Illustrator 19.0.0, SVG Export Plug-In . SVG Version: 6.00 Build 0)  -->
<svg version="1.1" id="Capa_1" xmlns="http://www.w3.org/2000/svg" xmlns:xlink="http://www.w3.org/1999/xlink" x="0px" y="0px"
	 viewBox="0 0 512 512" style="enable-background:new 0 0 512 512;" xml:space="preserve">
<g>
	<g>
		<path d="M421.35,73.464c-5.539-11.862-3.946-25.219,3.009-35.256c-6.956-4.952-15.458-7.873-24.647-7.873
			c-23.507,0-42.563,19.056-42.563,42.563c0,23.507,19.054,42.563,42.562,42.563c13.649,0,25.789-6.433,33.578-16.423L421.35,73.464
			z"/>
	</g>
</g>
<g>
	<g>
		<path d="M510.211,135.149l-39.551-84.71c-4.423-9.473-15.687-13.565-25.16-9.144c-9.472,4.424-13.566,15.687-9.144,25.16
			l28.939,61.981l-41.127,6.592l13.187-5.162H376.22c-15.88,0-28.752,12.853-28.752,28.733v10.854l-23.797,12.042l-71.417-21.437
			c-10.015-3.006-20.567,2.675-23.573,12.688c-1.57,5.228-0.754,10.594,1.794,14.966c-8.373,1.262-15.58,6.069-20.054,12.841
			h-33.525v-15.789h22.361c5.009,0,9.07-4.061,9.07-9.07v-20.581c10.247,0,18.553-8.307,18.553-18.553s-8.307-18.553-18.553-18.553
			v-11.175c0-5.01-4.061-9.07-9.07-9.07h-36.975V69.07c2.465-2.125,4.031-5.263,4.031-8.773c0-6.401-5.188-11.589-11.589-11.589
			s-11.589,5.188-11.589,11.589c0,3.51,1.567,6.648,4.031,8.773v28.692h-36.71c-5.01,0-9.07,4.061-9.07,9.07v11.175
			c-10.247,0-18.553,8.307-18.553,18.553s8.307,18.553,18.553,18.553v20.581c0,5.01,4.061,9.07,9.07,9.07h22.098v15.789H99.7
			c-5.241-7.934-14.236-13.172-24.457-13.172c-16.18,0-29.296,13.116-29.296,29.296c0,6.558,2.155,12.612,5.795,17.493
			l-25.01,89.831c-10.077,2.617-18.542,10.322-21.559,21.156L0.185,363.08c-0.644,2.313,0.71,4.711,3.023,5.356l15.893,4.425
			c2.313,0.644,4.711-0.71,5.356-3.023l4.989-17.922c0.741-2.659,3.5-4.233,6.178-3.488c2.665,0.742,4.229,3.514,3.488,6.178
			l-4.989,17.922c-0.644,2.313,0.71,4.711,3.023,5.356l15.893,4.425c2.313,0.644,4.711-0.71,5.356-3.023l4.989-17.922
			c2.991-10.744-0.25-21.771-7.531-29.231l19.392-69.652v102.387c0,6.553,5.313,11.865,11.865,11.865h9.057v103.728
			c-9.493,5.497-16.34,15.058-18.154,26.307c-0.203,1.259,0.157,2.544,0.984,3.514c0.827,0.97,2.039,1.528,3.314,1.528h64.999
			c1.274,0,2.484-0.56,3.31-1.529c0.827-0.97,1.19-2.254,0.988-3.513c-1.814-11.249-8.661-20.809-18.154-26.307V376.734h42.806
			v103.71c-9.493,5.497-16.34,15.058-18.154,26.307c-0.203,1.259,0.157,2.544,0.984,3.514c0.827,0.97,2.039,1.528,3.314,1.528
			h64.999c1.274,0,2.484-0.56,3.31-1.529c0.827-0.97,1.19-2.254,0.988-3.513c-1.814-11.249-8.661-20.81-18.154-26.307v-103.71h9.057
			c6.553,0,11.865-5.313,11.865-11.865v-103.85l19.799,71.115c-7.281,7.46-10.522,18.486-7.531,29.231l4.989,17.922
			c0.644,2.313,3.042,3.667,5.356,3.023l15.893-4.425c2.313-0.644,3.667-3.042,3.023-5.356l-4.989-17.922
			c-0.742-2.665,0.823-5.437,3.488-6.178c2.664-0.742,5.437,0.823,6.178,3.488l4.989,17.922c0.644,2.313,3.042,3.667,5.356,3.023
			l15.893-4.425c2.313-0.644,3.667-3.042,3.023-5.356l-4.989-17.922c-2.998-10.77-11.418-18.523-21.559-21.156l-25.01-89.831
			c3.64-4.882,5.795-10.935,5.795-17.493c0-5.361-1.447-10.381-3.961-14.703l59.815,17.955c4.636,1.391,9.646,0.958,13.989-1.24
			l13.45-6.806v93.29l-22.214,60.566c-1.276,3.478-1.717,7.208-1.288,10.886l13.316,114.26c1.512,12.97,13.248,22.275,26.241,20.764
			c12.98-1.513,22.276-13.261,20.764-26.241l-12.663-108.664l25.903-70.624h11.353l-0.26,181.995
			c-0.019,13.08,10.578,23.695,23.662,23.695c13.052,0,23.642-10.572,23.661-23.628l0.26-182.063h0.046V174.615l-26.087-2.205
			l65.895-10.562C508.442,159.863,515.534,146.548,510.211,135.149z M162.94,131.154c-2.361-2.361-2.361-6.189,0-8.551
			c2.36-2.361,6.19-2.361,8.551,0l5.407,5.407l5.407-5.407c2.36-2.361,6.19-2.361,8.551,0c2.361,2.362,2.361,6.19,0,8.551
			l-5.407,5.407l5.407,5.407c2.361,2.361,2.361,6.189,0,8.551c-2.36,2.36-6.19,2.361-8.551,0l-5.407-5.407l-5.407,5.407
			c-2.36,2.36-6.19,2.361-8.551,0c-2.361-2.361-2.361-6.189,0-8.551l5.407-5.407L162.94,131.154z M127.149,150.518
			c-2.36,2.36-6.19,2.362-8.551,0c-2.361-2.361-2.361-6.189,0-8.551l5.407-5.407l-5.407-5.407c-2.361-2.361-2.361-6.189,0-8.551
			c2.36-2.361,6.19-2.361,8.551,0l5.407,5.407l5.407-5.407c2.36-2.361,6.19-2.361,8.551,0c2.362,2.362,2.362,6.19,0,8.551
			l-5.407,5.407l5.407,5.407c2.362,2.361,2.362,6.189,0,8.551c-2.36,2.36-6.19,2.361-8.551,0l-5.407-5.407L127.149,150.518z
			 M201.531,286.49c0,3.645-2.955,6.6-6.6,6.6h-80.408c-3.645,0-6.6-2.955-6.6-6.6V246.95c0-3.645,2.955-6.6,6.6-6.6h80.408
			c3.645,0,6.6,2.955,6.6,6.6V286.49z"/>
	</g>
</g>
<g>
	<g>
		<path d="M95.051,84.553L71.728,49.879c1.125-0.89,2.218-1.861,3.269-2.911c11.322-11.322,13.423-27.579,4.692-36.31
			c-5.778-5.777-14.852-6.807-23.61-3.565c-0.585-1.095-1.307-2.115-2.207-3.015c-5.86-5.861-16.413-4.954-24.439,1.769
			C23.895,2.38,15.883,3.601,10.34,9.144C4.825,14.659,3.585,22.62,6.987,28.155c-7.912,8.161-9.328,19.683-3.101,25.909
			c0.9,0.9,1.92,1.623,3.015,2.207C3.659,65.03,4.689,74.103,10.467,79.88c8.731,8.731,24.987,6.63,36.309-4.692
			c1.525-1.525,2.877-3.141,4.063-4.814l34.911,23.48c1.787,1.202,4.174,0.97,5.698-0.553l3.05-3.05
			C96.021,88.729,96.252,86.34,95.051,84.553z"/>
	</g>
</g>
<g>
</g>
<g>
</g>
<g>
</g>
<g>
</g>
<g>
</g>
<g>
</g>
<g>
</g>
<g>
</g>
<g>
</g>
<g>
</g>
<g>
</g>
<g>
</g>
<g>
</g>
<g>
</g>
<g>
</g>
</svg>
